<?xml version="1.0" encoding="UTF-8" standalone="no"?>
<!DOCTYPE svg PUBLIC "-//W3C//DTD SVG 1.1//EN" "http://www.w3.org/Graphics/SVG/1.1/DTD/svg11.dtd">
<svg xmlns="http://www.w3.org/2000/svg" version="1.1" viewBox="0.00 0.00 512.00 710.00">
<path fill="#ffffff" d="
  M 373.04 580.81
  Q 372.84 561.10 373.00 541.37
  Q 373.04 537.47 374.05 533.50
  C 374.92 530.04 375.39 526.35 377.30 523.43
  Q 380.76 518.13 385.95 514.55
  Q 388.72 512.64 393.33 511.47
  C 397.35 510.44 401.10 509.13 405.31 509.16
  Q 441.38 509.40 477.42 508.15
  C 483.23 507.94 492.03 509.07 497.03 512.03
  Q 502.13 515.05 505.62 519.78
  Q 507.86 522.82 509.11 527.70
  C 510.12 531.64 511.03 534.97 511.02 539.16
  Q 510.98 588.54 511.03 637.92
  C 511.04 643.45 509.92 647.86 508.54 653.02
  C 507.51 656.85 504.35 661.44 501.57 664.28
  Q 483.86 682.46 465.63 700.12
  Q 464.21 701.49 459.54 704.63
  C 456.21 706.87 452.00 707.01 448.18 708.06
  Q 444.69 709.01 441.52 709.00
  Q 356.39 708.93 271.25 708.94
  C 266.37 708.94 262.26 707.56 257.55 706.52
  Q 254.55 705.86 252.22 704.30
  Q 248.24 701.65 246.55 699.95
  Q 228.10 681.44 209.77 662.82
  C 207.47 660.48 205.70 657.93 203.89 655.28
  C 201.88 652.33 201.14 647.61 200.37 644.14
  Q 199.55 640.48 199.55 636.29
  Q 199.54 594.38 199.55 552.35
  Q 199.55 551.95 199.15 551.86
  Q 194.21 550.74 189.24 549.53
  Q 186.58 548.89 184.42 547.30
  Q 182.07 545.56 179.71 543.81
  Q 179.32 543.51 178.90 543.78
  C 175.81 545.72 173.38 548.16 169.76 549.01
  C 164.83 550.16 160.50 551.39 155.33 551.31
  Q 94.22 550.33 33.15 552.17
  C 28.46 552.32 24.84 551.27 20.33 550.32
  Q 17.42 549.70 15.46 548.54
  Q 10.00 545.32 6.29 540.23
  C 3.06 535.81 0.99 526.93 0.99 521.34
  Q 0.95 482.68 0.99 444.04
  C 0.99 438.89 2.14 434.91 3.33 430.02
  Q 4.10 426.86 5.38 424.73
  Q 9.09 418.55 15.12 414.51
  C 17.86 412.68 21.06 412.09 24.26 411.32
  A 1.19 1.19 0.0 0 0 25.13 410.43
  L 87.05 142.30
  Q 87.18 141.75 86.68 141.46
  Q 80.93 138.13 77.10 132.84
  Q 75.02 129.99 73.84 125.43
  C 72.84 121.58 71.73 117.81 71.69 113.77
  Q 71.32 74.51 71.13 35.25
  Q 71.10 28.90 72.53 22.78
  Q 73.85 17.19 76.72 13.28
  Q 79.88 8.96 84.41 5.96
  Q 86.84 4.34 90.99 3.36
  C 94.61 2.51 98.03 1.24 101.76 1.24
  Q 172.36 1.26 242.96 1.27
  Q 246.82 1.27 250.66 2.26
  C 254.18 3.17 257.90 3.72 260.91 5.55
  Q 266.66 9.06 270.38 14.64
  C 273.21 18.90 275.23 27.13 275.24 32.42
  Q 275.29 72.99 275.25 113.56
  C 275.25 118.62 273.96 125.17 272.57 129.01
  Q 270.68 134.28 264.82 139.09
  Q 264.50 139.35 264.60 139.76
  L 289.33 237.43
  Q 289.45 237.90 289.93 237.92
  Q 365.08 240.64 440.16 239.76
  Q 443.86 239.72 447.72 240.56
  C 451.78 241.44 456.41 241.58 459.92 243.90
  C 462.26 245.45 464.44 246.91 466.52 248.88
  Q 484.30 265.78 502.10 282.66
  Q 503.47 283.96 506.11 287.83
  Q 507.82 290.35 508.62 293.53
  C 509.68 297.77 510.98 301.65 510.99 306.09
  Q 511.04 344.17 511.00 382.25
  Q 510.99 384.66 508.70 392.21
  Q 507.28 396.89 505.14 399.83
  Q 502.60 403.30 499.28 406.05
  Q 496.19 408.61 491.14 410.32
  Q 484.18 412.66 481.75 412.73
  C 468.14 413.07 454.27 414.02 440.99 414.01
  Q 423.91 413.99 406.83 414.17
  C 401.08 414.22 392.14 413.10 387.35 409.90
  Q 381.78 406.19 378.17 400.56
  Q 376.57 398.08 375.60 393.82
  Q 375.00 391.17 374.28 388.54
  C 372.87 383.34 373.48 377.31 373.48 371.95
  Q 373.48 371.45 372.98 371.44
  L 337.04 370.66
  Q 336.48 370.65 336.48 371.21
  L 336.48 412.98
  Q 336.48 413.45 336.94 413.56
  C 339.20 414.10 341.37 414.52 343.35 415.75
  Q 348.39 418.88 351.98 423.52
  C 355.96 428.66 358.13 437.86 358.15 444.44
  Q 358.22 484.97 358.18 525.50
  Q 358.18 527.80 356.56 534.06
  Q 355.27 539.02 353.22 542.02
  Q 349.31 547.72 343.07 551.08
  C 341.15 552.11 339.25 552.26 337.07 552.74
  Q 336.49 552.87 336.49 553.46
  L 336.49 580.03
  Q 336.49 580.56 337.03 580.58
  L 372.46 581.37
  Q 373.04 581.39 373.04 580.81
  Z
  M 386.51 595.45
  L 323.01 594.30
  Q 322.48 594.29 322.48 593.76
  L 322.48 540.76
  Q 322.48 540.27 322.97 540.30
  C 325.72 540.42 328.64 540.65 331.13 540.28
  Q 343.85 538.41 343.98 524.75
  Q 344.14 507.50 343.94 444.26
  C 343.93 438.23 343.18 433.69 339.14 429.79
  C 335.41 426.20 329.22 425.05 324.14 425.54
  Q 322.50 425.70 322.49 424.04
  L 322.47 356.56
  Q 322.47 356.09 322.94 356.11
  L 387.03 357.80
  Q 387.54 357.81 387.53 358.32
  Q 387.42 370.09 387.60 381.81
  Q 387.69 388.06 388.84 390.99
  C 392.18 399.48 398.80 399.92 407.92 400.04
  Q 442.77 400.49 477.58 398.73
  C 485.73 398.32 492.26 396.99 495.39 389.41
  Q 496.80 385.97 496.81 375.41
  Q 496.85 341.17 496.79 306.91
  C 496.78 301.43 496.01 296.70 492.32 293.19
  Q 475.08 276.82 457.87 260.36
  C 452.30 255.04 448.05 253.87 439.88 253.97
  Q 391.73 254.57 378.25 254.25
  Q 330.01 253.14 279.76 251.88
  A 1.15 1.14 -6.2 0 1 278.67 251.01
  L 248.52 132.01
  Q 248.41 131.56 248.86 131.47
  Q 256.68 129.79 259.51 123.58
  Q 261.01 120.29 261.02 111.20
  Q 261.05 73.20 261.02 35.19
  C 261.01 26.82 260.29 20.30 252.54 16.89
  Q 249.30 15.46 242.25 15.45
  C 207.18 15.44 172.07 15.75 137.00 15.18
  Q 120.81 14.92 104.60 15.09
  C 96.53 15.17 90.04 16.19 86.73 23.59
  Q 85.19 27.04 85.21 35.61
  Q 85.30 73.01 85.87 110.40
  Q 86.01 119.95 87.65 123.36
  C 90.54 129.33 96.34 131.16 103.23 131.18
  Q 103.71 131.18 103.61 131.65
  L 36.12 423.10
  Q 36.01 423.61 35.49 423.60
  C 30.45 423.52 24.62 424.27 20.63 427.37
  C 15.92 431.03 15.15 437.31 15.14 443.00
  Q 15.11 479.88 15.14 516.76
  Q 15.15 526.52 16.75 530.01
  Q 20.07 537.20 29.76 537.98
  Q 34.30 538.35 47.43 537.63
  Q 57.55 537.08 65.08 537.03
  Q 109.60 536.76 154.12 537.03
  Q 161.33 537.07 164.29 536.11
  C 173.76 533.01 173.95 525.07 173.97 515.30
  Q 174.14 453.48 173.93 436.88
  Q 173.82 428.38 166.15 423.69
  Q 165.41 423.24 166.27 423.27
  L 191.74 424.06
  Q 192.53 424.08 191.87 424.52
  Q 184.73 429.26 184.61 437.26
  Q 184.32 457.18 184.60 518.92
  C 184.63 526.27 185.62 531.35 191.42 535.40
  C 193.71 537.00 199.09 537.98 201.85 537.98
  Q 207.49 537.99 213.25 538.29
  Q 213.76 538.32 213.76 538.83
  Q 213.73 588.32 213.78 637.81
  C 213.79 643.90 214.71 647.92 218.74 652.00
  Q 236.46 669.92 254.18 687.86
  C 258.29 692.02 262.25 694.72 267.75 694.72
  Q 354.06 694.80 440.37 695.05
  C 445.71 695.07 451.59 694.16 455.12 690.89
  Q 464.32 682.41 491.87 654.12
  Q 496.80 649.05 496.81 643.51
  Q 496.83 590.13 496.82 536.75
  Q 496.82 527.88 489.09 523.78
  C 486.60 522.46 481.85 521.91 479.05 522.01
  C 468.90 522.39 458.71 523.00 448.65 523.02
  Q 427.79 523.06 406.94 523.28
  Q 399.55 523.36 396.13 524.83
  Q 387.21 528.69 387.18 540.25
  Q 387.10 567.55 387.13 594.84
  Q 387.13 595.46 386.51 595.45
  Z"
/>
<path fill="#000000" d="
  M 387.13 594.84
  Q 387.10 567.55 387.18 540.25
  Q 387.21 528.69 396.13 524.83
  Q 399.55 523.36 406.94 523.28
  Q 427.79 523.06 448.65 523.02
  C 458.71 523.00 468.90 522.39 479.05 522.01
  C 481.85 521.91 486.60 522.46 489.09 523.78
  Q 496.82 527.88 496.82 536.75
  Q 496.83 590.13 496.81 643.51
  Q 496.80 649.05 491.87 654.12
  Q 464.32 682.41 455.12 690.89
  C 451.59 694.16 445.71 695.07 440.37 695.05
  Q 354.06 694.80 267.75 694.72
  C 262.25 694.72 258.29 692.02 254.18 687.86
  Q 236.46 669.92 218.74 652.00
  C 214.71 647.92 213.79 643.90 213.78 637.81
  Q 213.73 588.32 213.76 538.83
  Q 213.76 538.32 213.25 538.29
  Q 207.49 537.99 201.85 537.98
  C 199.09 537.98 193.71 537.00 191.42 535.40
  C 185.62 531.35 184.63 526.27 184.60 518.92
  Q 184.32 457.18 184.61 437.26
  Q 184.73 429.26 191.87 424.52
  Q 192.53 424.08 191.74 424.06
  L 166.27 423.27
  Q 165.41 423.24 166.15 423.69
  Q 173.82 428.38 173.93 436.88
  Q 174.14 453.48 173.97 515.30
  C 173.95 525.07 173.76 533.01 164.29 536.11
  Q 161.33 537.07 154.12 537.03
  Q 109.60 536.76 65.08 537.03
  Q 57.55 537.08 47.43 537.63
  Q 34.30 538.35 29.76 537.98
  Q 20.07 537.20 16.75 530.01
  Q 15.15 526.52 15.14 516.76
  Q 15.11 479.88 15.14 443.00
  C 15.15 437.31 15.92 431.03 20.63 427.37
  C 24.62 424.27 30.45 423.52 35.49 423.60
  Q 36.01 423.61 36.12 423.10
  L 103.61 131.65
  Q 103.71 131.18 103.23 131.18
  C 96.34 131.16 90.54 129.33 87.65 123.36
  Q 86.01 119.95 85.87 110.40
  Q 85.30 73.01 85.21 35.61
  Q 85.19 27.04 86.73 23.59
  C 90.04 16.19 96.53 15.17 104.60 15.09
  Q 120.81 14.92 137.00 15.18
  C 172.07 15.75 207.18 15.44 242.25 15.45
  Q 249.30 15.46 252.54 16.89
  C 260.29 20.30 261.01 26.82 261.02 35.19
  Q 261.05 73.20 261.02 111.20
  Q 261.01 120.29 259.51 123.58
  Q 256.68 129.79 248.86 131.47
  Q 248.41 131.56 248.52 132.01
  L 278.67 251.01
  A 1.15 1.14 -6.2 0 0 279.76 251.88
  Q 330.01 253.14 378.25 254.25
  Q 391.73 254.57 439.88 253.97
  C 448.05 253.87 452.30 255.04 457.87 260.36
  Q 475.08 276.82 492.32 293.19
  C 496.01 296.70 496.78 301.43 496.79 306.91
  Q 496.85 341.17 496.81 375.41
  Q 496.80 385.97 495.39 389.41
  C 492.26 396.99 485.73 398.32 477.58 398.73
  Q 442.77 400.49 407.92 400.04
  C 398.80 399.92 392.18 399.48 388.84 390.99
  Q 387.69 388.06 387.60 381.81
  Q 387.42 370.09 387.53 358.32
  Q 387.54 357.81 387.03 357.80
  L 322.94 356.11
  Q 322.47 356.09 322.47 356.56
  L 322.49 424.04
  Q 322.50 425.70 324.14 425.54
  C 329.22 425.05 335.41 426.20 339.14 429.79
  C 343.18 433.69 343.93 438.23 343.94 444.26
  Q 344.14 507.50 343.98 524.75
  Q 343.85 538.41 331.13 540.28
  C 328.64 540.65 325.72 540.42 322.97 540.30
  Q 322.48 540.27 322.48 540.76
  L 322.48 593.76
  Q 322.48 594.29 323.01 594.30
  L 386.51 595.45
  Q 387.13 595.46 387.13 594.84
  Z
  M 46.81 437.58
  L 30.24 438.08
  Q 29.58 438.10 29.58 438.76
  L 29.58 523.20
  Q 29.58 523.70 30.09 523.68
  Q 94.68 521.21 159.28 522.95
  Q 159.50 522.96 159.50 522.74
  L 159.50 436.45
  A 0.55 0.55 0.0 0 0 158.96 435.90
  L 137.49 435.37
  Q 136.88 435.36 137.04 434.76
  L 144.12 408.77
  A 0.52 0.51 7.8 0 1 144.63 408.39
  L 213.25 410.07
  Q 213.73 410.08 213.73 409.60
  Q 213.77 354.43 213.82 299.25
  Q 213.82 292.09 219.65 286.42
  Q 235.46 271.01 251.74 256.10
  C 253.00 254.94 254.53 254.07 255.94 252.96
  Q 256.32 252.66 256.81 252.58
  L 263.69 251.55
  Q 264.31 251.46 264.16 250.85
  L 230.35 117.73
  Q 230.22 117.20 230.76 117.20
  L 246.48 117.29
  Q 247.00 117.29 247.00 116.77
  L 247.00 30.29
  Q 247.00 29.81 246.52 29.81
  Q 186.13 30.17 125.75 29.26
  Q 116.35 29.12 99.97 29.28
  Q 99.50 29.29 99.50 29.75
  L 100.06 116.55
  A 0.28 0.28 0.0 0 0 100.34 116.83
  L 120.66 116.77
  A 0.72 0.71 6.7 0 1 121.36 117.65
  L 47.18 437.28
  A 0.39 0.39 0.0 0 1 46.81 437.58
  Z
  M 291.71 252.35
  Q 293.33 252.42 294.43 252.37
  A 0.03 0.03 0.0 0 0 294.43 252.31
  L 291.72 252.31
  Q 290.66 252.31 291.71 252.35
  Z
  M 307.92 608.32
  L 307.93 342.16
  A 0.66 0.66 0.0 0 1 308.60 341.50
  L 401.70 343.55
  Q 402.11 343.56 402.11 343.96
  L 402.10 385.53
  A 0.39 0.38 89.3 0 0 402.49 385.92
  C 428.92 385.82 455.54 385.85 481.94 384.03
  Q 482.42 383.99 482.42 383.51
  L 482.42 304.72
  A 1.63 1.62 22.0 0 0 481.92 303.55
  L 445.40 268.97
  A 1.33 1.31 -22.9 0 0 444.49 268.61
  C 420.47 268.75 396.44 269.19 372.49 268.61
  Q 317.74 267.29 262.93 265.94
  Q 262.41 265.92 262.02 266.29
  L 228.76 297.73
  A 2.37 2.36 68.6 0 0 228.01 299.46
  L 228.02 640.02
  A 2.54 2.49 -67.7 0 0 228.74 641.79
  L 266.40 679.82
  A 1.43 1.42 67.8 0 0 267.42 680.25
  C 294.68 680.29 322.00 679.93 349.25 680.44
  Q 396.37 681.34 443.50 681.10
  Q 444.69 681.09 445.26 680.54
  Q 457.50 668.75 480.43 645.69
  C 482.69 643.42 482.42 642.79 482.42 639.75
  Q 482.41 588.27 482.43 536.77
  Q 482.43 536.31 481.97 536.32
  Q 442.16 537.77 402.33 537.53
  A 0.70 0.70 0.0 0 0 401.62 538.23
  L 401.64 608.84
  Q 401.64 609.82 400.66 609.81
  L 308.32 608.72
  A 0.40 0.40 0.0 0 1 307.92 608.32
  Z
  M 213.75 437.60
  A 0.44 0.44 0.0 0 0 213.31 437.16
  L 199.63 437.16
  A 0.44 0.44 0.0 0 0 199.19 437.60
  L 199.19 523.46
  A 0.44 0.44 0.0 0 0 199.63 523.90
  L 213.31 523.90
  A 0.44 0.44 0.0 0 0 213.75 523.46
  L 213.75 437.60
  Z
  M 329.90 440.33
  A 0.27 0.27 0.0 0 0 329.63 440.06
  L 322.75 440.06
  A 0.27 0.27 0.0 0 0 322.48 440.33
  L 322.48 525.77
  A 0.27 0.27 0.0 0 0 322.75 526.04
  L 329.63 526.04
  A 0.27 0.27 0.0 0 0 329.90 525.77
  L 329.90 440.33
  Z"
/>
<path fill="#ffffff" d="
  M 46.81 437.58
  A 0.39 0.39 0.0 0 0 47.18 437.28
  L 121.36 117.65
  A 0.72 0.71 6.7 0 0 120.66 116.77
  L 100.34 116.83
  A 0.28 0.28 0.0 0 1 100.06 116.55
  L 99.50 29.75
  Q 99.50 29.29 99.97 29.28
  Q 116.35 29.12 125.75 29.26
  Q 186.13 30.17 246.52 29.81
  Q 247.00 29.81 247.00 30.29
  L 247.00 116.77
  Q 247.00 117.29 246.48 117.29
  L 230.76 117.20
  Q 230.22 117.20 230.35 117.73
  L 264.16 250.85
  Q 264.31 251.46 263.69 251.55
  L 256.81 252.58
  Q 256.32 252.66 255.94 252.96
  C 254.53 254.07 253.00 254.94 251.74 256.10
  Q 235.46 271.01 219.65 286.42
  Q 213.82 292.09 213.82 299.25
  Q 213.77 354.43 213.73 409.60
  Q 213.73 410.08 213.25 410.07
  L 144.63 408.39
  A 0.52 0.51 7.8 0 0 144.12 408.77
  L 137.04 434.76
  Q 136.88 435.36 137.49 435.37
  L 158.96 435.90
  A 0.55 0.55 0.0 0 1 159.50 436.45
  L 159.50 522.74
  Q 159.50 522.96 159.28 522.95
  Q 94.68 521.21 30.09 523.68
  Q 29.58 523.70 29.58 523.20
  L 29.58 438.76
  Q 29.58 438.10 30.24 438.08
  L 46.81 437.58
  Z
  M 158.42 342.16
  A 0.35 0.35 0.0 0 0 158.75 342.60
  L 196.73 343.23
  A 0.35 0.35 0.0 0 0 197.07 342.80
  L 178.41 267.24
  A 0.35 0.35 0.0 0 0 177.73 267.23
  L 158.42 342.16
  Z"
/>
<path fill="#ffffff" d="
  M 291.72 252.31
  L 294.43 252.31
  A 0.03 0.03 0.0 0 1 294.43 252.37
  Q 293.33 252.42 291.71 252.35
  Q 290.66 252.31 291.72 252.31
  Z"
/>
<path fill="#d70000" d="
  M 307.92 608.32
  A 0.40 0.40 0.0 0 0 308.32 608.72
  L 400.66 609.81
  Q 401.64 609.82 401.64 608.84
  L 401.62 538.23
  A 0.70 0.70 0.0 0 1 402.33 537.53
  Q 442.16 537.77 481.97 536.32
  Q 482.43 536.31 482.43 536.77
  Q 482.41 588.27 482.42 639.75
  C 482.42 642.79 482.69 643.42 480.43 645.69
  Q 457.50 668.75 445.26 680.54
  Q 444.69 681.09 443.50 681.10
  Q 396.37 681.34 349.25 680.44
  C 322.00 679.93 294.68 680.29 267.42 680.25
  A 1.43 1.42 67.8 0 1 266.40 679.82
  L 228.74 641.79
  A 2.54 2.49 -67.7 0 1 228.02 640.02
  L 228.01 299.46
  A 2.37 2.36 68.6 0 1 228.76 297.73
  L 262.02 266.29
  Q 262.41 265.92 262.93 265.94
  Q 317.74 267.29 372.49 268.61
  C 396.44 269.19 420.47 268.75 444.49 268.61
  A 1.33 1.31 -22.9 0 1 445.40 268.97
  L 481.92 303.55
  A 1.63 1.62 22.0 0 1 482.42 304.72
  L 482.42 383.51
  Q 482.42 383.99 481.94 384.03
  C 455.54 385.85 428.92 385.82 402.49 385.92
  A 0.39 0.38 89.3 0 1 402.10 385.53
  L 402.11 343.96
  Q 402.11 343.56 401.70 343.55
  L 308.60 341.50
  A 0.66 0.66 0.0 0 0 307.93 342.16
  L 307.92 608.32
  Z"
/>
<path fill="#000000" d="
  M 158.42 342.16
  L 177.73 267.23
  A 0.35 0.35 0.0 0 1 178.41 267.24
  L 197.07 342.80
  A 0.35 0.35 0.0 0 1 196.73 343.23
  L 158.75 342.60
  A 0.35 0.35 0.0 0 1 158.42 342.16
  Z
  M 177.66 324.52
  L 176.78 327.99
  Q 176.63 328.57 177.23 328.60
  L 178.70 328.66
  Q 179.18 328.68 179.05 328.21
  L 178.02 324.51
  Q 177.83 323.83 177.66 324.52
  Z"
/>
<path fill="#ffffff" d="
  M 176.78 327.99
  L 177.66 324.52
  Q 177.83 323.83 178.02 324.51
  L 179.05 328.21
  Q 179.18 328.68 178.70 328.66
  L 177.23 328.60
  Q 176.63 328.57 176.78 327.99
  Z"
/>
<rect fill="#ffffff" x="199.19" y="437.16" width="14.56" height="86.74" rx="0.44"/>
<rect fill="#ffffff" x="322.48" y="440.06" width="7.42" height="85.98" rx="0.27"/>
</svg>
